#!OML:ASF F:\VICON\USERDATA\INSTALL\rory3\rory3.ASF
:FULLY-SPECIFIED
:DEGREES
109
root 0.4215245245484947 18.083674558381723 11.812332713434701 15.598392378299115 4.490531101583956 -1.5971574178291754
lfemur -24.080636605216576 7.735234399822659 -18.43323092682033
ltibia 36.62705779470427
lfoot -8.306262909673418 1.1341355943926255
ltoes -12.774970062615429
rfemur -31.491859158168936 -4.602260109540082 22.15736420589429
rtibia 38.16630169658112
rfoot -13.978619445393498 0.1081411278983877
rtoes 9.48586015950159
lowerback -4.3366021537694905 0.35498056944375145 0.9668240814135195
upperback 0.23708288202218886 0.5507635556549546 1.5690615840639655
thorax -0.9840389696334642 0.22624505536750072 0.8099418159082148
lowerneck -12.676274753772205 -2.7246092223744096 -2.666235964873361
upperneck 6.889802607979055 -3.5896550457522975 1.2289104455132722
head 3.7707847258776583 -1.8463483116349488 0.43156112654438994
lclavicle 1.8720321249140714e-16 -2.352741363454787e-15
lhumerus -28.477749385554112 -3.4349769301729314 78.27248477749744
lradius 18.674090858821756
lwrist 0.6134102904325047
lhand -24.582477749267415 -7.072115435853055
lfingers 7.12502
lthumb 1.7030585669948066 22.229637960291225
rclavicle 1.86102330696265e-16 -2.3549670005072536e-15
rhumerus -27.74526103989623 -18.956860276290378 -73.13043153803456
rradius 25.9729028024176
rwrist 34.03934597196474
rhand -20.67420366361348 -25.398890204344323
rfingers 7.12502
rthumb 6.820718678598356 -55.15304391946576
110
root 0.42299409446555736 18.036834601084653 11.86678795251671 15.63490855576713 4.448411658824519 -1.6376171182660508
lfemur -24.831818231414008 7.689252945361277 -18.47011209452982
ltibia 38.202072017419844
lfoot -8.292981515091896 1.0956574908383887
ltoes -12.90227844286307
rfemur -31.745458077662853 -4.4982539469629454 22.20846095682148
rtibia 38.391898449359076
rfoot -14.034357872585955 0.19679479609438788
rtoes 9.50435918314011
lowerback -3.9783663306353785 0.39463138884042004 0.9727947900093251
upperback 0.29781910110154375 0.6117214548368357 1.5997505377791423
thorax -0.8812554828359493 0.25338267775460416 0.8184486396630601
lowerneck -12.829916185486326 -2.7230241537066173 -2.6669454783972233
upperneck 6.748391770301966 -3.5665941728804773 1.2277230204259888
head 3.732559522713555 -1.8294947711505065 0.4317362540733106
lclavicle 1.872078278808027e-16 -2.352735492813491e-15
lhumerus -28.419862327286577 -3.9502767200504123 79.09337404354017
lradius 19.300821584489594
lwrist 1.9538855145987206
lhand -24.644353928560434 -7.041871246005437
lfingers 7.12502
lthumb 1.6189214875295368 22.176421656826527
rclavicle 1.861607957509478e-16 -2.354873852169057e-15
rhumerus -27.811300962164314 -18.78088405242227 -73.46021798890213
rradius 26.2478950802705
rwrist 33.63934419573114
rhand -20.545459576605655 -25.351111266366097
rfingers 7.12502
rthumb 6.9370838239506405 -55.07149498580717
111
root 0.42294969114932585 17.99148525152567 11.91049923404633 15.679613371824978 4.395115752766213 -1.669581602375335
lfemur -25.666537790477165 7.651829789422414 -18.528974106872706
ltibia 39.76437445090035
lfoot -8.25451829506434 1.0587414833557345
ltoes -12.97206970059367
rfemur -31.8476567762468 -4.381199603896944 22.23015070246556
rtibia 38.57485994155162
rfoot -14.124005751471671 0.24342801744513087
rtoes 9.511012567468583
lowerback -3.63843899122338 0.4387664235897625 0.9748330091911834
upperback 0.3586389339412408 0.6762775918453103 1.6274756706306577
thorax -0.769937543467786 0.28383260628735746 0.8275461577706698
lowerneck -12.971383099868392 -2.7418090529343195 -2.669960207143424
upperneck 6.660724619850288 -3.5780138954469285 1.2520064596958889
head 3.6928222852236487 -1.8288545481768423 0.44086249326263877
lclavicle 1.8725400061009643e-16 -2.3526635840126932e-15
lhumerus -28.430869181258803 -4.314325626969665 79.86458952062468
lradius 19.843808109634107
lwrist 3.142028941171144
lhand -24.716943005500205 -7.008506546817943
lfingers 7.12502
lthumb 1.5605607371752037 22.159611502970503
rclavicle 1.8615337450038423e-16 -2.3548854792837304e-15
rhumerus -27.89772443004023 -18.598333823307414 -73.74952848199939
rradius 26.50144655752664
rwrist 33.22479628641634
rhand -20.426176077132038 -25.317003372026022
rfingers 7.12502
rthumb 7.034761953316044 -54.998922925043
112
root 0.4233412337943431 17.948102212454714 11.950432028526592 15.745542257522844 4.347238472823279 -1.6946554070765674
lfemur -26.53743645695472 7.601526924741335 -18.593939824803503
ltibia 41.299519403960815
lfoot -8.202685242274057 0.9980912721428892
ltoes -12.981907731601124
rfemur -31.847752532329128 -4.260391862599949 22.23215010900608
rtibia 38.71176304361781
rfoot -14.244703056452032 0.27798750604772193
rtoes 9.472368351275465
lowerback -3.3201454409705966 0.47976176472844634 0.9751829725420702
upperback 0.4102430960776803 0.7378122795007938 1.6544052177509412
thorax -0.6354140918689053 0.31163686519201733 0.8381152645204996
lowerneck -13.090458806250666 -2.7639158629871403 -2.6677630437213806
upperneck 6.5887369237363735 -3.6021510878347716 1.2808311899082436
head 3.6603524570051738 -1.8336536648375699 0.45059541243486906
lclavicle 1.8711825735750526e-16 -2.3528760547579633e-15
lhumerus -28.46060864875086 -4.481955685588531 80.5435352452194
lradius 20.258855075432447
lwrist 4.12135179990385
lhand -24.80455131565188 -6.986164921162376
lfingers 7.12502
lthumb 1.5209817848180454 22.172617510004077
rclavicle 1.8606798949843e-16 -2.3550211727174214e-15
rhumerus -28.0226416754782 -18.433592948254464 -73.98108737803011
rradius 26.729038087921246
rwrist 32.83261490968865
rhand -20.31601135344575 -25.283088210837132
rfingers 7.12502
rthumb 7.12104833428287 -54.926832725492375
